<svg xmlns="http://www.w3.org/2000/svg" viewBox="0 0 98.43 24.12" fill="#d4060e"><path d="M9.95 13.28h3.32v10.07a11.08 11.08 0 0 1-11.94-6.13h3.72a6.78 6.78 0 0 0 4.9 2.87z"/><path d="M2.27 5.28h4.3a8 8 0 0 1 10.83.81H1.45a12.3 12.3 0 0 0-.64 10.2h3.53s-2.07-3.91-.64-6.82h18.93A11.23 11.23 0 0 0 12.27.38s-7-.37-10 4.9zM14.27 19.87v3.35s7.31-1.35 8.72-10.06h-3.33a8.34 8.34 0 0 1-5.39 6.71z"/><circle cx="11.55" cy="11.38" r="1.64"/><path d="M78.15 22.01a1.29 1.29 0 0 1 .12-.5s0-.09.23 0c0 0 .35.08.53.8 0 0 .16.74-.24.8H77.7a.88.88 0 0 1 0-.58h.9s.13-.06 0-.2a1.49 1.49 0 0 0-.45-.37zM94.27 20.53a.36.36 0 0 0 .23.44s.59.26.32.32a1 1 0 0 0-.26.56 1.57 1.57 0 0 0 0 .34 1.35 1.35 0 0 1-.13.93h-1.4s-.16-.11-.2-.11h-.09s-.05 0-.07.13h-1.74s0-.13-.11 0h-.92s-.07-.14-.17 0a.14.14 0 0 0-.05.06h-.85a1.12 1.12 0 0 1-.18-.16s-.07-.11-.11 0a.21.21 0 0 0-.07.16h-1.8s-.46-.11-.24-1a.53.53 0 0 1 .26-.38s.08-.07 0 .08-.23.55.14.74h1.67v-.22a.6.6 0 0 1 .17-.4 1.16 1.16 0 0 1 .26-.23v.73a.11.11 0 0 0 .07.12h.82v-.26a.5.5 0 0 1 .26-.45h.06a4 4 0 0 1-.06.77h.69a.72.72 0 0 1 0-.27.73.73 0 0 1 .26-.44s.07-.07.07 0v.67h.36V22.25a1.26 1.26 0 0 1 .23-.29s.08-.14.08 0v.69h1v-.38a.36.36 0 0 1 .17-.31.12.12 0 0 1 .09-.11c.09 0 .07-.08.07 0v.77h1s.14-.07 0-.59a1.41 1.41 0 0 0-.32-.74 2.32 2.32 0 0 1 .39-.72zM65.637 20.903l.304-.304.304.304-.304.304z"/><path d="M66.078 20.902l.305-.304.304.304-.304.304zM68.99 21.14l.29-.3.31.3-.31.3-.29-.3z"/><path d="M70.03 21.14l-.3-.3-.31.3.31.3.3-.3zM87.3 21.432l.307-.3.3.307-.307.3z"/><path d="M88.33 21.43l-.3-.3-.3.3.3.31.3-.31zM92.18 23.747l.303-.304.304.304-.304.304z"/><path d="M92.62 23.736l.304-.304.304.304-.304.304zM81.722 23.752l.308-.3.3.308-.307.3zM67.855 23.741l.304-.304.304.304-.304.304z"/><path d="M85.27 23.01l.23.08a.12.12 0 0 0 .17 0 1.61 1.61 0 0 0 .21-.35.61.61 0 0 0 0-.46 3.32 3.32 0 0 1-.13-.43.21.21 0 0 0-.35-.11h-.13v.47a.18.18 0 0 1 .14.12s0 .11-.09.07h-.05zm-.58-.06v-.09h.2l.34.17v-.61l-.15-.11a.21.21 0 0 1 .15 0v-.47a1.21 1.21 0 0 0-.66.68s0 .16-.24.17h-.76s-.16 0-.08-.14a.51.51 0 0 0 .08-.2s.1-.09-.11-.09h-.32a.7.7 0 0 1-.47-.11s-.24-.11-.51-.2a.74.74 0 0 0-.73 0 1.39 1.39 0 0 0-.4.56s-.06.14.06 0 .15-.23.61-.14a1 1 0 0 0 .32.08s.18.06 0 .13a.3.3 0 0 0-.17 0h-1.28a1 1 0 0 1-.43-.47s-.11-.23-.18-.11l-.23.4s-.05 0 0 .11l.26.33s.09.11 0 .17a3.39 3.39 0 0 1-.8.66.69.69 0 0 1-.47 0s-.2-.14-.27 0-.1.08.09.18a2.2 2.2 0 0 0 .59.28.64.64 0 0 0 .62 0 1.6 1.6 0 0 0 .62-.9h1.28a.41.41 0 0 0 .27 0 .94.94 0 0 0 .23-.15s0-.08.25-.09h.57s.14 0 .13.11v.13h1.36a.38.38 0 0 1 .16-.18zM84.74 20.66v.27l-.1-.06-.12-.08v-.33l.08.06v-.1a.16.16 0 0 0 0-.11h-.06v-.22h.08c.13 0 .19.08.19.24v.28h.06zm-.29.18a2 2 0 0 1-.23.25.43.43 0 0 1-.27.12h-.16l.15-.09.13-.11a3.27 3.27 0 0 0 .29-.26l-.09-.15a.22.22 0 0 1 0-.12.68.68 0 0 1 .1-.3.29.29 0 0 1 .09-.11v.22h-.05a.14.14 0 0 0 0 .09h.05zM76.27 21.8c.09 0 .41-.23.49 0a4.06 4.06 0 0 0 .19.58.21.21 0 0 1 0 .3 1 1 0 0 0-.17.36.5.5 0 0 1-.32 0l-.19-.11v-.58h.07c.17 0 .06-.11.06-.11a.16.16 0 0 0-.13-.07zm-.7.79a1.08 1.08 0 0 1 .68-.78v.43h-.08c-.2.06 0 .11 0 .11h.1v.58a2.2 2.2 0 0 0-.39-.11s-.13-.07-.21.1l-.16.2h-1s-.24-.19-.24 0v.06h-4.3s-.11-.19-.24-.07a.08.08 0 0 1-.08.08h-1.09s-.26-.21-.36-.07h-1.27a.4.4 0 0 1-.17-.27v-.06s0-.06-.08 0l-.17.22v-.59h.2l-.07-.3c0-.11-.11 0-.11 0v-.41s.08 0 .05-.09-.08-.08 0-.23l.24-.3q.1.59.15 1.19s.06.33.16.34h1s.09 0 .1-.17v-.2l.32-.35s.06-.08.06 0v.65s0 .11.08.11h1s.07 0 .06-.1v-.27l.34-.44s.06-.08.05 0v.66a.14.14 0 0 0 .14.14h3.54l.05-.11-.1-.08h-2.93s-.49 0-.26-.41c0 0 .38-.78 2-1.22l-.36.55a3.49 3.49 0 0 0-1 .45s-.24.12 0 .12h2.79a.54.54 0 0 1 .38.43s.07.23.15.26h.93zm-9 .38a.26.26 0 0 1-.3.04.89.89 0 0 0-.5-.09s-.09 0-.08-.16a.87.87 0 0 1 .27-.65 2.72 2.72 0 0 1 .43-.28h.11v.38l-.09.08a.21.21 0 0 0-.12.16h.21z"/><circle cx="95.81" cy="22.89" r=".23"/><circle cx="97" cy="22.89" r=".23"/><circle cx="98.2" cy="22.89" r=".23"/><path d="M25.06 17.82v1s2.36-.21 2.7-2.27v-5.46h-1.05s.07 4.36 0 5.24c-.03-.03.05 1.11-1.65 1.49zM30.83 12.23a4.19 4.19 0 0 1 2-1.12v7.52h-1.21v-1.9h-.79v-1.16h.79v-2.32a4.3 4.3 0 0 0-.79.83zm-2.56 6.41c.36-3.51 1.55-5.4 2.61-6.41v1.86a5.67 5.67 0 0 0-.78 1.49h.78v1.17h-1.27a6.29 6.29 0 0 0-.32 1.9zM35.42 11.09a2.6 2.6 0 0 1 1.8 2.2 2.86 2.86 0 0 1-1.41 2.65 2.53 2.53 0 0 0 1.62 1.6v1a3.36 3.36 0 0 1-2-1.16v-2.51a1.42 1.42 0 0 0 .74-1.47 1.39 1.39 0 0 0-.74-1.13zm-1.81-.08h1.17a3.06 3.06 0 0 1 .64.11v1.19a1.68 1.68 0 0 0-.74-.15v3a1.72 1.72 0 0 0 .74-.18v2.57a3.84 3.84 0 0 1-.61-1h-.14v2.11h-1.06zM38.07 10.94h1.13v7.65h-1.13zM41.92 11.09a2.6 2.6 0 0 1 1.8 2.21 2.85 2.85 0 0 1-1.45 2.63 2.51 2.51 0 0 0 1.62 1.6v1.06a3.3 3.3 0 0 1-2-1.16v-2.56a1.43 1.43 0 0 0 .74-1.48 1.39 1.39 0 0 0-.74-1.12zm-1.82-.08h1.17a3.08 3.08 0 0 1 .63.1v1.19a1.73 1.73 0 0 0-.7-.19v3a1.74 1.74 0 0 0 .74-.18v2.57a3.69 3.69 0 0 1-.62-1c-.11.06-.14 0-.14 0v2.11h-1.07zM64.06 11.96a2.855 2.855 0 0 1 0 5.71v1.08a3.91 3.91 0 0 0 0-7.82zm-2.79 2.85a2.85 2.85 0 0 1 2.84-2.86v-1a3.91 3.91 0 0 0 0 7.82v-1.11a2.84 2.84 0 0 1-2.84-2.84zM55.96 11.9a2.86 2.86 0 0 1 0 5.72v1.08a3.92 3.92 0 0 0 0-7.83zm-2.84 2.87a2.85 2.85 0 0 1 2.83-2.87v-1a3.92 3.92 0 0 0 0 7.83v-1.1a2.85 2.85 0 0 1-2.85-2.85zM69.79 16.09v2.46h-1.07v-7.46h1v3.15s1.65-.15 2.15-3.15h1s.32 2.21-2.22 4c0 0 1.14 2.41 2.43 2.45v1a4 4 0 0 1-3.14-2.5zM73.97 17.01l-.1 1.13a2.35 2.35 0 0 0 1.56.48 2.38 2.38 0 0 0 1.34-4.21 10.62 10.62 0 0 1-1.5-.88s-1-.84.44-1.55a1.41 1.41 0 0 1 1.16.3l.14-1.09s-.51-.68-1.82-.23a2 2 0 0 0-.7 3.39 6.52 6.52 0 0 0 1.43.8 1 1 0 0 1 .68 1.13 1.32 1.32 0 0 1-.84 1.11 2.22 2.22 0 0 1-1.79-.38zM77.8 12.5a2.73 2.73 0 0 1 1.4-.53v6.5h1.18v-6.52a2.15 2.15 0 0 1 1.45.59l.31-1s-.31-.7-2.39-.83a5 5 0 0 0-2.46.79zM92.02 11.01a2.56 2.56 0 0 1 1.85 2.3 2.93 2.93 0 0 1-1.45 2.52s-.14.77 1.59 1.64v1a3.18 3.18 0 0 1-2-1.09v-2.66a1.5 1.5 0 0 0 0-2.55zm-1.75 7.44v-7.56a4.4 4.4 0 0 1 1.82.14v1.15a1.46 1.46 0 0 0-.71-.11v2.94a2.11 2.11 0 0 0 .71-.26v2.66a3.94 3.94 0 0 1-.6-.89h-.11v2zM94.32 14.38a4.05 4.05 0 0 0 3.83 4.25h.27v-1.06s-2.57 0-2.89-2.32h2.89v-1.07h-2.88a2.73 2.73 0 0 1 2.88-2.34v-1.06a4 4 0 0 0-4.1 3.6zM85.85 11.87a2.855 2.855 0 1 1 0 5.71v1.08a3.91 3.91 0 0 0 0-7.82zm-2.84 2.86a2.85 2.85 0 0 1 2.84-2.86v-1a3.91 3.91 0 0 0 0 7.82v-1.11a2.85 2.85 0 0 1-2.84-2.85zM49.98 11.35a2.17 2.17 0 0 1 1.29 1.22 2.71 2.71 0 0 1-.2 2.14 1.75 1.75 0 0 1 .56 1.38v.28a4.74 4.74 0 0 1-.07.6 2.27 2.27 0 0 1-1.61 1.6v-1.19a1.31 1.31 0 0 0 .69-1.37 1.63 1.63 0 0 0-.67-1v-.55a1.24 1.24 0 0 0 .46-1 1.2 1.2 0 0 0-.46-.94zm-1.71-.2a4.28 4.28 0 0 1 1.77.2v1.18a1.3 1.3 0 0 0-.67-.22v5.26a1.63 1.63 0 0 0 .67-.19v1.16a2.65 2.65 0 0 1-.46.08 8.58 8.58 0 0 1-1.27 0v-7.47zm1.77 3.3a2.67 2.67 0 0 1-.46.35 1.5 1.5 0 0 1 .46.2zM25.85 7.82a1.78 1.78 0 0 0 2.09 1.27 2.56 2.56 0 0 0 1.93-2.15h12.65V3.01h-1.45v2.23H29.84v-.75h-1.48v2.42s0 1.81-2.51.91z"/><path d="M36.27 9.21a.93.93 0 1 0-1-.94.92.92 0 0 0 1 .94zM38.27 9.21a.93.93 0 1 0-1-.94.93.93 0 0 0 1 .94zM60.51 5.24H47.97v-.79h-1.48v2.64s-.57 1.59-2.51.34a1.88 1.88 0 0 0 2.09 1.49 2.35 2.35 0 0 0 1.93-2h14.84V5.31h-.57a2.32 2.32 0 0 0-1.58-2.35 20.2 20.2 0 0 1-3.5-.87 2.58 2.58 0 0 1-1-1 1.85 1.85 0 0 0 .08 2.14s0 .56 1.86.73a5.77 5.77 0 0 1 2.06.55s.42.31.32.73z"/><path d="M58.87 9.21a.94.94 0 0 0 .92-.93.93.93 0 0 0-.92-.93.92.92 0 0 0-.92.92.93.93 0 0 0 .92.94zM96.84 3.92a1.47 1.47 0 0 1 1.48 1.17v1.8h-1.48V5.36h.26a.47.47 0 0 0-.26-.35zm-29.9-1.53a6.2 6.2 0 0 1 1.92-.56v3.65h4.25V3.42h1.4v2h2.53V3.29h1.4V5.4H90.6s.36-.35-.09-.52h-9.13l.07-1.43A3.44 3.44 0 0 0 82.68.31h1.28a7.27 7.27 0 0 1-.69 3.14h7.8a1.57 1.57 0 0 1 1.36 1.94h2.69a1.48 1.48 0 0 1 1.49-1.47h.23v1.17h-.07s-.1 0-.18.32h.25v1.48h-29.9v-1.4h.65V3.66a3.31 3.31 0 0 0-.65.54zm-2.27 4.5v-.65a4.18 4.18 0 0 1 2.3-3.86V4.2a2.14 2.14 0 0 0-.65 1.3h.65v1.4zM64.54 1.95a.93.93 0 1 0-.83-.83.93.93 0 0 0 .83.83zM66.82 1.95a.93.93 0 1 0-.92-.94.93.93 0 0 0 .92.94z"/><path d="M75.94 1.95a.92.92 0 0 0 .92-.94.93.93 0 0 0-.92-.93.92.92 0 0 0-.92.92.91.91 0 0 0 .9.92zM78.47 1.95a.92.92 0 0 0 .92-.94.93.93 0 1 0-1.85 0 .92.92 0 0 0 .92.92zM73.77 9.21a.94.94 0 0 0 .92-.93.93.93 0 1 0-.93.93z"/><circle cx="26.15" cy="22.87" r=".24"/><circle cx="27.24" cy="22.87" r=".24"/><circle cx="28.34" cy="22.87" r=".24"/><path d="M58.27 23.09v-.27a.28.28 0 0 0 .2-.07.22.22 0 0 0 .07-.18h.41a.51.51 0 0 1-.2.38.77.77 0 0 1-.48.14zm0-.71v-.28h.3a.52.52 0 0 0-.06-.24.24.24 0 0 0-.24-.12v-.27a.7.7 0 0 1 .53.2.93.93 0 0 1 .17.61v.1zm0-.91v.27a.25.25 0 0 0-.24.14.67.67 0 0 0-.07.23h.31v.28h-.3a.65.65 0 0 0 .08.32.24.24 0 0 0 .23.12v.26a.67.67 0 0 1-.53-.21.85.85 0 0 1-.19-.59.84.84 0 0 1 .2-.59.64.64 0 0 1 .52-.23zm-2.87 1.62v-.27a.31.31 0 0 0 .27-.14.73.73 0 0 0 .09-.4.74.74 0 0 0-.09-.41.3.3 0 0 0-.27-.14v-.27a.74.74 0 0 1 .57.21.84.84 0 0 1 .2.6.82.82 0 0 1-.2.59.74.74 0 0 1-.57.21zm1.1-1.58h.4v.26-.08a.43.43 0 0 1 .39-.22v.39a.42.42 0 0 0-.31.11.4.4 0 0 0-.11.3v.82h-.41zm-1.1 0v.27a.3.3 0 0 0-.26.14.75.75 0 0 0-.09.41.82.82 0 0 0 .08.41.31.31 0 0 0 .27.13v.22a.74.74 0 0 1-.56-.21.82.82 0 0 1-.2-.59.84.84 0 0 1 .2-.6.74.74 0 0 1 .56-.21zm-6.26 1.58v-.27a.3.3 0 0 0 .26-.14.73.73 0 0 0 .09-.4.74.74 0 0 0-.09-.41.3.3 0 0 0-.26-.14v-.27a.74.74 0 0 1 .56.21.84.84 0 0 1 .2.6.82.82 0 0 1-.2.59.74.74 0 0 1-.56.21zm1.53 0h-.4v-2.2h.41v1.28l.46-.62h.47l-.52.67.56.87h-.48l-.49-.8v.8zm2.06-1.08a.26.26 0 0 0-.06-.17.27.27 0 0 0-.18 0 .31.31 0 0 0-.17 0 .14.14 0 0 0-.07.12.1.1 0 0 0 .07.09l.23.08h.2a.76.76 0 0 1 .32.17.4.4 0 0 1 .09.28.43.43 0 0 1-.19.37.75.75 0 0 1-.48.14.77.77 0 0 1-.49-.14.47.47 0 0 1-.18-.39h.45a.25.25 0 0 0 .07.2.28.28 0 0 0 .2.07.34.34 0 0 0 .2 0 .17.17 0 0 0 .08-.14.13.13 0 0 0 0-.11.64.64 0 0 0-.17-.08h-.2a.92.92 0 0 1-.38-.17.38.38 0 0 1-.11-.29.39.39 0 0 1 .18-.33.7.7 0 0 1 .45-.13.72.72 0 0 1 .47.13.38.38 0 0 1 .16.32zm1.61 1.09h-.3a.43.43 0 0 1-.33-.11.51.51 0 0 1-.1-.35v-.84h-.28v-.29h.28v-.23l.41-.21v.44h.32v.28h-.32v.77a.38.38 0 0 0 0 .21.19.19 0 0 0 .16 0h.09zm-5.25-1.59v.27a.3.3 0 0 0-.27.14.75.75 0 0 0-.09.41.74.74 0 0 0 .09.41.3.3 0 0 0 .27.13v.23a.74.74 0 0 1-.57-.21.82.82 0 0 1-.2-.59.84.84 0 0 1 .2-.6.74.74 0 0 1 .57-.21zm-1.82 1.58v-.27a.3.3 0 0 0 .27-.14.73.73 0 0 0 .09-.4.74.74 0 0 0-.09-.41.3.3 0 0 0-.27-.14v-.27a.74.74 0 0 1 .57.21.84.84 0 0 1 .2.6.82.82 0 0 1-.2.59.74.74 0 0 1-.57.23zm0-1.61v.27a.3.3 0 0 0-.26.14.75.75 0 0 0-.09.41.74.74 0 0 0 .09.41.29.29 0 0 0 .26.13v.25a.74.74 0 0 1-.56-.21.82.82 0 0 1-.2-.59.84.84 0 0 1 .2-.6.74.74 0 0 1 .56-.21zm-1.87 1.61v-.35a.58.58 0 0 0 .31-.08.27.27 0 0 0 .13-.24.28.28 0 0 0-.11-.23.5.5 0 0 0-.29-.08v-.35a.69.69 0 0 0 .22-.06.2.2 0 0 0 .12-.2.22.22 0 0 0-.11-.21.41.41 0 0 0-.23-.08v-.32a1 1 0 0 1 .56.14.48.48 0 0 1 .19.41.45.45 0 0 1-.22.41.88.88 0 0 1-.23.09.9.9 0 0 1 .29.11.49.49 0 0 1 .25.45.51.51 0 0 1-.22.44 1.05 1.05 0 0 1-.63.16zm0-2.2v.34h-.34v.55h.34v.31h-.34v.63h.34v.37h-.79v-2.2zm-3 2.2v-.26a.26.26 0 0 0 .2-.1.48.48 0 0 0 .09-.29v-.12h-.29v-.23h.29v-.08a.25.25 0 0 0-.07-.2.3.3 0 0 0-.2-.06v-.27a.78.78 0 0 1 .52.14.54.54 0 0 1 .17.44v.85a.47.47 0 0 0 .06.17h-.39v-.13a.49.49 0 0 1-.33.14zm0-1.6v.27a.22.22 0 0 0-.16 0 .19.19 0 0 0-.06.16h-.41a.46.46 0 0 1 .17-.36.78.78 0 0 1 .46-.11zm0 .59v.26a.36.36 0 0 0-.17.06.25.25 0 0 0-.12.22.19.19 0 0 0 .07.16.28.28 0 0 0 .19.06v.25a.73.73 0 0 1-.5-.08.44.44 0 0 1-.14-.35.47.47 0 0 1 .2-.41 1 1 0 0 1 .5-.14zm-10.34 1v-.27a.3.3 0 0 0 .26-.14.73.73 0 0 0 .09-.4.74.74 0 0 0-.09-.41.3.3 0 0 0-.26-.14v-.27a.74.74 0 0 1 .56.21.84.84 0 0 1 .2.6.82.82 0 0 1-.2.59.74.74 0 0 1-.56.21zm2 0h-.3a.43.43 0 0 1-.33-.11.51.51 0 0 1-.1-.35v-.84h-.28v-.27h.28v-.23l.41-.21v.44h.32v.28h-.32v.77a.38.38 0 0 0 0 .21.19.19 0 0 0 .16 0h.11v.27zm1.32-1.55h.41v1.68a.49.49 0 0 1-.11.35.55.55 0 0 1-.37.11h-.23v-.26h.19a.23.23 0 0 0 .17 0 .16.16 0 0 0 0-.14v-1.72zm0-.66h.45v.41h-.45v-.4zm1.2 1.56a.5.5 0 0 0 .08.29.24.24 0 0 0 .2.11.29.29 0 0 0 .25-.12.49.49 0 0 0 .09-.32v-.87h.41v1.56h-.34v-.25a.38.38 0 0 1-.07.1.52.52 0 0 1-.43.19.54.54 0 0 1-.5-.11.72.72 0 0 1-.08-.48v-.94h.41v.9zm2.32-.42a.22.22 0 0 0-.06-.17.26.26 0 0 0-.18 0 .31.31 0 0 0-.17 0 .14.14 0 0 0-.07.12.1.1 0 0 0 .07.09l.23.08h.2a.76.76 0 0 1 .32.17.4.4 0 0 1 .09.28.43.43 0 0 1-.19.37.75.75 0 0 1-.48.14.77.77 0 0 1-.49-.14.47.47 0 0 1-.18-.39h.4a.25.25 0 0 0 .07.2.29.29 0 0 0 .2.07.34.34 0 0 0 .2 0 .17.17 0 0 0 .08-.14.13.13 0 0 0 0-.11.64.64 0 0 0-.17-.08h-.2a.92.92 0 0 1-.38-.17.38.38 0 0 1-.11-.29.39.39 0 0 1 .18-.33.7.7 0 0 1 .45-.13.72.72 0 0 1 .47.13.38.38 0 0 1 .16.32zm1.57 1.1h-.3a.43.43 0 0 1-.33-.11.55.55 0 0 1-.1-.35v-.84h-.28v-.3h.28v-.23l.41-.21v.44h.32v.28h-.32v.77a.38.38 0 0 0 0 .21.2.2 0 0 0 .17 0h.11zm-10.91-1.56h.41v.25l.07-.11a.49.49 0 0 1 .42-.17.5.5 0 0 1 .41.15.68.68 0 0 1 .14.46v1h-.41v-1a.37.37 0 0 0-.08-.25.26.26 0 0 0-.2-.09.31.31 0 0 0-.26.11.58.58 0 0 0-.08.33v.9h-.41v-1.58zm2.54 0v.27a.3.3 0 0 0-.27.14.75.75 0 0 0-.09.41.74.74 0 0 0 .09.41.3.3 0 0 0 .27.13v.18a.74.74 0 0 1-.57-.21.82.82 0 0 1-.2-.59.84.84 0 0 1 .2-.6.74.74 0 0 1 .57-.21z"/></svg>
